<svg width="24" height="22" viewBox="0 0 24 22" fill="none" xmlns="http://www.w3.org/2000/svg">
<path d="M22.7848 20.0758L18.8862 16.6255L18.7948 16.4997C18.6249 16.3466 18.3926 16.2604 18.1501 16.2604C17.9077 16.2604 17.6754 16.3466 17.5055 16.4997C14.1923 19.2512 9.08698 19.4008 5.57543 16.8492C2.06388 14.2977 1.23572 9.83673 3.64017 6.42492C6.04463 3.0131 10.9356 1.70911 15.0694 3.37774C19.2032 5.04637 21.2971 9.16984 19.9624 13.0135C19.8663 13.2911 19.9448 13.5931 20.1685 13.8056C20.3921 14.0181 20.7269 14.1089 21.0467 14.0437C21.3664 13.9786 21.6227 13.7674 21.7188 13.4897C23.3143 8.92842 20.9046 4.01983 16.0485 1.9393C11.1924 -0.141239 5.34727 1.23066 2.29433 5.16751C-0.758603 9.10435 -0.103157 14.4247 3.83666 17.6868C7.77649 20.9489 13.8183 21.1737 18.0537 18.2159L21.5056 21.2709C21.8621 21.585 22.4384 21.585 22.7949 21.2709C23.1511 20.9523 23.1511 20.4394 22.7949 20.1208L22.7848 20.0758Z" fill="#828A89"/>
</svg>
