<svg width="20" height="18" viewBox="0 0 20 18" fill="none" xmlns="http://www.w3.org/2000/svg">
<path d="M20 16.5C20 16.8315 19.8683 17.1495 19.6339 17.3839C19.3995 17.6183 19.0815 17.75 18.75 17.75L1.25 17.75C0.91848 17.75 0.600536 17.6183 0.366116 17.3839C0.131695 17.1495 0 16.8315 0 16.5C0 16.1685 0.131695 15.8505 0.366116 15.6161C0.600536 15.3817 0.91848 15.25 1.25 15.25L18.75 15.25C19.0815 15.25 19.3995 15.3817 19.6339 15.6161C19.8683 15.8505 20 16.1685 20 16.5ZM20 1.5C20 1.83152 19.8683 2.14946 19.6339 2.38388C19.3995 2.61831 19.0815 2.75 18.75 2.75L1.25 2.75C0.91848 2.75 0.600536 2.61831 0.366116 2.38388C0.131695 2.14946 0 1.83152 0 1.5C0 1.16848 0.131695 0.850536 0.366116 0.616116C0.600536 0.381695 0.91848 0.25 1.25 0.25L18.75 0.25C19.0815 0.25 19.3995 0.381695 19.6339 0.616116C19.8683 0.850536 20 1.16848 20 1.5ZM18.75 10.25C19.0815 10.25 19.3995 10.1183 19.6339 9.88388C19.8683 9.64946 20 9.33152 20 9C20 8.66848 19.8683 8.35054 19.6339 8.11612C19.3995 7.8817 19.0815 7.75 18.75 7.75L8.75 7.75C8.41848 7.75 8.10054 7.8817 7.86612 8.11612C7.6317 8.35054 7.5 8.66848 7.5 9C7.5 9.33152 7.6317 9.64946 7.86612 9.88388C8.10054 10.1183 8.41848 10.25 8.75 10.25L18.75 10.25Z" fill="#756B6B"/>
</svg>
