<svg width="27" height="29" viewBox="0 0 27 29" fill="none" xmlns="http://www.w3.org/2000/svg">
<path fill-rule="evenodd" clip-rule="evenodd" d="M13.125 0C12.5867 0 12.0704 0.212596 11.6898 0.59102C11.3091 0.969444 11.0953 1.4827 11.0953 2.01787V2.21966C8.8033 2.68554 6.74349 3.924 5.26412 5.72563C3.78475 7.52727 2.9766 9.78152 2.97632 12.1072V20.1787L0.530483 22.8584C-0.652853 24.1559 0.272707 26.2323 2.03249 26.2323H9.6095C9.9658 26.8458 10.4783 27.3552 11.0954 27.7094C11.7124 28.0635 12.4124 28.25 13.125 28.25C13.8376 28.25 14.5376 28.0635 15.1546 27.7094C15.7717 27.3552 16.2842 26.8458 16.6405 26.2323H24.2175C25.9773 26.2323 26.9029 24.1539 25.7195 22.8584L23.2737 20.1787V12.1072C23.2734 9.78152 22.4652 7.52727 20.9859 5.72563C19.5065 3.924 17.4467 2.68554 15.1547 2.21966V2.01787C15.1547 1.4827 14.9409 0.969444 14.5602 0.59102C14.1796 0.212596 13.6633 0 13.125 0ZM6.02092 21.3491L5.22932 22.2127L4.32406 23.2055H21.9259L21.0186 22.2127L20.2291 21.347V12.1072C20.2291 11.1798 20.0453 10.2614 19.6883 9.4045C19.3313 8.54763 18.808 7.76906 18.1483 7.11325C17.4887 6.45743 16.7055 5.9372 15.8436 5.58228C14.9817 5.22735 14.0579 5.04467 13.125 5.04467C12.1921 5.04467 11.2683 5.22735 10.4064 5.58228C9.54448 5.9372 8.76133 6.45743 8.10166 7.11325C7.44198 7.76906 6.9187 8.54763 6.56169 9.4045C6.20467 10.2614 6.02092 11.1798 6.02092 12.1072V21.3491Z" fill="#756B6B"/>
</svg>
