<svg width="24" height="20" viewBox="0 0 24 20" fill="none" xmlns="http://www.w3.org/2000/svg">
<path fill-rule="evenodd" clip-rule="evenodd" d="M1.16671 16.5C0.568399 16.5 0.083374 16.015 0.083374 15.4167C0.083374 14.8184 0.568399 14.3334 1.16671 14.3334H4.57532C5.04313 12.7698 6.49268 11.6303 8.20839 11.6303C9.9241 11.6303 11.3737 12.7698 11.8415 14.3334L22.8334 14.3334C23.4317 14.3334 23.9167 14.8184 23.9167 15.4167C23.9167 16.015 23.4317 16.5 22.8334 16.5H11.8446C11.3802 18.069 9.92795 19.2136 8.20839 19.2136C6.48883 19.2136 5.03662 18.069 4.57218 16.5H1.16671ZM9.83866 15.422C9.83866 16.3223 9.10877 17.0522 8.20839 17.0522C7.30802 17.0522 6.57812 16.3223 6.57812 15.422C6.57812 14.5216 7.30802 13.7917 8.20839 13.7917C9.10877 13.7917 9.83866 14.5216 9.83866 15.422Z" fill="white"/>
<path fill-rule="evenodd" clip-rule="evenodd" d="M19.4279 3.50002C18.9635 1.93109 17.5113 0.786417 15.7917 0.786417C14.0721 0.786417 12.6199 1.93109 12.1555 3.50002H1.16671C0.568399 3.50002 0.083374 3.98505 0.083374 4.58335C0.083374 5.18166 0.568399 5.66669 1.16671 5.66669H12.1586C12.6264 7.2302 14.076 8.36975 15.7917 8.36975C17.5074 8.36975 18.957 7.2302 19.4248 5.66669H22.8334C23.4317 5.66669 23.9167 5.18166 23.9167 4.58335C23.9167 3.98505 23.4317 3.50002 22.8334 3.50002H19.4279ZM17.422 4.57809C17.422 5.47846 16.6921 6.20835 15.7917 6.20835C14.8913 6.20835 14.1614 5.47846 14.1614 4.57809C14.1614 3.67771 14.8913 2.94782 15.7917 2.94782C16.6921 2.94782 17.422 3.67771 17.422 4.57809Z" fill="white"/>
</svg>
