<svg width="30" height="30" viewBox="0 0 30 30" fill="none" xmlns="http://www.w3.org/2000/svg">
<path fill-rule="evenodd" clip-rule="evenodd" d="M16.1972 29.1667H12.9714C7.94449 29.1667 5.43178 29.1667 3.71824 27.6908C2.0047 26.215 1.64886 23.746 0.938655 18.8052L0.53178 15.9804C-0.0223869 12.1348 -0.29947 10.2112 0.489488 8.56771C1.27699 6.92417 2.95553 5.92375 6.31116 3.92583L8.33095 2.72271C11.3759 0.907083 12.9014 0 14.5843 0C16.2672 0 17.7912 0.907083 20.8376 2.72271L22.8574 3.92583C26.2116 5.92375 27.8901 6.92417 28.6791 8.56771C29.4666 10.2112 29.1895 12.1348 28.6353 15.9804L28.2299 18.8052C27.5197 23.746 27.1639 26.215 25.4503 27.6908C23.7368 29.1667 21.2241 29.1667 16.1972 29.1667ZM9.33136 19.7648C9.50408 19.5318 9.76227 19.3769 10.0492 19.3343C10.336 19.2916 10.6281 19.3646 10.8612 19.5373C11.9228 20.3248 13.2047 20.7812 14.5843 20.7812C15.9639 20.7812 17.2457 20.3248 18.3074 19.5373C18.4228 19.4517 18.5539 19.3896 18.6933 19.3547C18.8326 19.3198 18.9775 19.3126 19.1196 19.3337C19.2618 19.3548 19.3983 19.4036 19.5216 19.4774C19.6448 19.5513 19.7523 19.6487 19.8379 19.7641C19.9235 19.8794 19.9856 20.0106 20.0205 20.1499C20.0554 20.2893 20.0626 20.4342 20.0415 20.5763C20.0205 20.7184 19.9716 20.855 19.8978 20.9782C19.8239 21.1015 19.7265 21.209 19.6112 21.2946C18.1597 22.3798 16.3965 22.967 14.5843 22.9687C12.772 22.967 11.0088 22.3798 9.55741 21.2946C9.32463 21.1216 9.17006 20.8634 9.12767 20.5765C9.08528 20.2896 9.15855 19.9977 9.33136 19.7648Z" fill="#E1E1E1"/>
</svg>
