<svg width="30" height="31" viewBox="0 0 30 31" fill="none" xmlns="http://www.w3.org/2000/svg">
<path fill-rule="evenodd" clip-rule="evenodd" d="M19.366 0.280228C19.6574 0.137155 19.9946 0.113568 20.3036 0.214651C20.6127 0.315734 20.8682 0.533215 21.014 0.819288L24.6196 7.90271C26.836 8.07006 28.2268 8.49809 29.1245 9.58747C30.5989 11.3801 30.0108 14.077 28.8346 19.4724L28.1318 22.6907C27.334 26.3482 26.936 28.1762 25.5845 29.2495C24.233 30.3228 22.3295 30.3228 18.5224 30.3228H11.4783C7.67123 30.3228 5.76769 30.3228 4.41785 29.2495C3.06473 28.1762 2.66502 26.3482 1.86888 22.6907L1.16611 19.4724C-0.010089 14.077 -0.599826 11.3801 0.876154 9.58747C1.77386 8.49648 3.16466 8.07006 5.38109 7.90271L8.98667 0.819288C9.13373 0.535486 9.38903 0.320282 9.69692 0.220573C10.0048 0.120865 10.3404 0.144734 10.6304 0.286981C10.9205 0.429227 11.1415 0.678319 11.2454 0.979974C11.3493 1.28163 11.3276 1.6114 11.1851 1.89741L8.17906 7.80294C8.97029 7.79489 9.8336 7.79489 10.7772 7.79489H19.2235C20.1671 7.79489 21.0304 7.79489 21.8216 7.80294L18.8156 1.89741C18.6701 1.61105 18.6463 1.27962 18.7495 0.976043C18.8528 0.672463 19.0745 0.423203 19.366 0.280228ZM7.2191 15.8406C7.2191 15.5205 7.34854 15.2135 7.57895 14.9872C7.80936 14.7609 8.12187 14.6337 8.44772 14.6337H21.553C21.8788 14.6337 22.1913 14.7609 22.4217 14.9872C22.6522 15.2135 22.7816 15.5205 22.7816 15.8406C22.7816 16.1607 22.6522 16.4676 22.4217 16.6939C22.1913 16.9203 21.8788 17.0474 21.553 17.0474H8.44772C8.12187 17.0474 7.80936 16.9203 7.57895 16.6939C7.34854 16.4676 7.2191 16.1607 7.2191 15.8406ZM11.724 19.4611C11.3982 19.4611 11.0857 19.5883 10.8553 19.8146C10.6249 20.0409 10.4954 20.3479 10.4954 20.668C10.4954 20.9881 10.6249 21.295 10.8553 21.5214C11.0857 21.7477 11.3982 21.8748 11.724 21.8748H18.2767C18.6025 21.8748 18.915 21.7477 19.1454 21.5214C19.3758 21.295 19.5053 20.9881 19.5053 20.668C19.5053 20.3479 19.3758 20.0409 19.1454 19.8146C18.915 19.5883 18.6025 19.4611 18.2767 19.4611H11.724Z" fill="#E1E1E1"/>
</svg>
